<svg version="1.1" id="Layer_1" xmlns="http://www.w3.org/2000/svg" xmlns:xlink="http://www.w3.org/1999/xlink" viewBox="0 0 512 512" xml:space="preserve" fill="#000000"><g id="SVGRepo_bgCarrier" stroke-width="0"></g><g id="SVGRepo_tracerCarrier" stroke-linecap="round" stroke-linejoin="round"></g><g id="SVGRepo_iconCarrier"> <path style="fill:#2D2D2D;" d="M0,355.201v-324c0.103-5.701,4.699-10.297,10.4-10.4h491.2c5.701,0.103,10.297,4.699,10.4,10.4v324H0 z"></path> <g> <path style="fill:#BCBCBC;" d="M512,355.201v41.6c-0.103,5.701-4.699,10.297-10.4,10.4H10.4c-5.701-0.103-10.297-4.699-10.4-10.4 v-41.6H512z"></path> <rect x="146.401" y="480.799" style="fill:#BCBCBC;" width="219.197" height="10.4"></rect> </g> <polygon style="fill:#2D2D2D;" points="328.8,480.802 183.2,480.802 193.6,407.202 318.4,407.202 "></polygon> <rect x="20.802" y="41.605" style="fill:#FFFFFF;" width="470.397" height="292.803"></rect> <polygon points="318.4,407.202 193.6,407.202 187.793,448.282 320.272,420.426 "></polygon> <g> <polygon style="fill:#E21B1B;" points="132.064,257.562 118.472,237.794 221.6,166.882 256.664,213.625 370.424,133.994 384.184,153.658 251.401,246.61 216.224,199.706 "></polygon> <polygon style="fill:#E21B1B;" points="394.8,204.418 370.8,204.418 370.8,140.33 306.713,140.33 306.713,116.329 394.8,116.329 "></polygon> </g> </g></svg>